<svg xmlns="http://www.w3.org/2000/svg" width="198" height="174" fill="none"><g opacity=".05"><mask id="a" fill="#fff"><path d="M189.757 68.19a2.651 2.651 0 0 0-1.602-1.267c-7.626-2.133-16.579-.824-24.561 3.592a35.954 35.954 0 0 0-12.103 10.722l-.064-.286c-2.423-10.934-2.423-15.066 0-26l1.816-8.196a2.64 2.64 0 0 0-1.438-2.958 2.652 2.652 0 0 0-1.145-.26h-32.921a2.653 2.653 0 0 0-2.064.99 2.644 2.644 0 0 0-.519 2.228l1.816 8.196c2.423 10.934 2.423 15.065 0 26l-1.816 8.196c-.01.043-.014.086-.021.13-.009.049-.019.097-.025.147-.005.05-.006.099-.009.148-.002.05-.007.098-.007.148 0 .049.004.098.007.147.003.05.004.099.009.148.006.05.016.099.025.148.007.043.011.086.021.13l1.816 8.195c2.423 10.935 2.423 15.065 0 26l-1.357 6.123H92.009l-1.356-6.123c-2.424-10.935-2.424-15.065 0-26l1.816-8.196c.01-.043.013-.086.02-.13.01-.048.02-.097.025-.147.005-.05.006-.099.01-.148.002-.05.006-.098.006-.147 0-.05-.004-.099-.007-.148-.003-.05-.004-.099-.01-.148-.005-.049-.015-.098-.023-.148-.008-.043-.012-.086-.021-.129l-1.816-8.196c-2.424-10.934-2.424-15.066 0-26l1.816-8.196c.01-.043.013-.086.02-.13.01-.049.02-.098.025-.147.005-.05.006-.099.01-.148.002-.05.006-.098.006-.148 0-.049-.004-.098-.007-.147-.003-.05-.004-.099-.01-.148-.005-.05-.015-.099-.023-.148-.008-.043-.012-.086-.021-.13l-1.816-8.196c-2.424-10.934-2.424-15.064 0-25.999l1.816-8.196A2.645 2.645 0 0 0 89.886 0H56.964a2.646 2.646 0 0 0-2.583 3.218l1.816 8.196c2.423 10.935 2.423 15.065 0 26l-.101.457a35.641 35.641 0 0 0-12.69-11.607c-7.982-4.416-16.935-5.725-24.56-3.592a2.645 2.645 0 0 0-1.825 3.298c2.246 7.594 8.112 14.482 16.094 18.897a35.522 35.522 0 0 0 17.04 4.593 28.829 28.829 0 0 0 4.737-.4l1.305 5.891c2.423 10.934 2.423 15.065 0 26l-1.816 8.196c-.01.043-.014.086-.021.13-.009.049-.019.097-.024.147-.006.05-.007.099-.01.148-.002.05-.007.098-.007.147 0 .05.005.099.007.148.003.049.004.099.01.148.005.05.015.099.024.148.007.043.012.086.02.13l1.817 8.195c2.423 10.935 2.423 15.065 0 26l-1.632 7.366c-13.741 9.697-21.291 22.536-21.291 36.283 0 14.346 8.181 27.657 23.036 37.479a5.057 5.057 0 0 1 1.745 6.549l-4.847 9.323a2.65 2.65 0 0 0 1.05 3.526c.396.223.843.34 1.297.34h96.946a2.644 2.644 0 0 0 2.347-3.866l-4.847-9.323a5.05 5.05 0 0 1-.387-3.61 5.05 5.05 0 0 1 2.133-2.939c14.855-9.822 23.036-23.133 23.036-37.48 0-13.915-7.739-26.899-21.802-36.637l-1.554-7.012c-2.423-10.934-2.423-15.065 0-26l1.131-5.101c1.419.215 2.852.323 4.287.325a35.528 35.528 0 0 0 17.039-4.593c7.983-4.416 13.849-11.303 16.095-18.897a2.638 2.638 0 0 0-.222-2.03Zm-67.619-14.384-1.103-4.978h26.33l-1.103 4.978c-2.578 11.633-2.578 16.657 0 28.29l1.103 4.978h-26.33l1.103-4.978c2.577-11.633 2.578-16.657 0-28.29Zm0 43.537-1.103-4.978h26.33l-1.103 4.978c-2.578 11.633-2.578 16.656 0 28.289l1.103 4.978h-26.33l1.103-4.978c2.577-11.633 2.578-16.656 0-28.289Zm-60.775 0-1.103-4.978h26.33l-1.103 4.978c-2.578 11.633-2.578 16.656 0 28.289l1.103 4.978H60.26l1.103-4.978c2.578-11.633 2.578-16.656 0-28.289Zm0-43.537-1.103-4.978h26.33l-1.103 4.978c-2.578 11.633-2.578 16.657 0 28.29l1.103 4.978H60.26l1.103-4.978c2.578-11.633 2.578-16.657 0-28.29Zm0-43.536L60.26 5.29h26.33l-1.103 4.979c-2.578 11.632-2.578 16.656 0 28.289l1.103 4.978H60.26l1.103-4.978c2.578-11.633 2.578-16.657 0-28.29ZM35.677 40.237c-5.786-3.2-10.241-7.859-12.575-13.057 5.642-.787 11.956.513 17.743 3.714 5.786 3.2 10.241 7.859 12.575 13.057-5.644.785-11.957-.514-17.743-3.714Zm133.815 127.899c0 12.513-7.339 24.256-20.663 33.067a10.329 10.329 0 0 0-3.522 13.403l2.837 5.457H59.913l2.837-5.457a10.335 10.335 0 0 0-3.522-13.403c-13.325-8.811-20.663-20.554-20.663-33.066 0-12.1 6.896-23.522 19.44-32.235h92.047c12.544 8.713 19.44 20.134 19.44 32.234Zm1.831-83.648c-5.786 3.2-12.099 4.501-17.743 3.714 2.334-5.198 6.789-9.857 12.575-13.057 5.787-3.201 12.099-4.5 17.743-3.714-2.333 5.198-6.789 9.856-12.575 13.057Z"/></mask><path fill="#121212" stroke="#F8F8F8" stroke-width="3" d="M189.757 68.19a2.651 2.651 0 0 0-1.602-1.267c-7.626-2.133-16.579-.824-24.561 3.592a35.954 35.954 0 0 0-12.103 10.722l-.064-.286c-2.423-10.934-2.423-15.066 0-26l1.816-8.196a2.64 2.64 0 0 0-1.438-2.958 2.652 2.652 0 0 0-1.145-.26h-32.921a2.653 2.653 0 0 0-2.064.99 2.644 2.644 0 0 0-.519 2.228l1.816 8.196c2.423 10.934 2.423 15.065 0 26l-1.816 8.196c-.01.043-.014.086-.021.13-.009.049-.019.097-.025.147-.005.05-.006.099-.009.148-.002.05-.007.098-.007.148 0 .049.004.098.007.147.003.05.004.099.009.148.006.05.016.099.025.148.007.043.011.086.021.13l1.816 8.195c2.423 10.935 2.423 15.065 0 26l-1.357 6.123H92.009l-1.356-6.123c-2.424-10.935-2.424-15.065 0-26l1.816-8.196c.01-.043.013-.086.02-.13.01-.048.02-.097.025-.147.005-.05.006-.099.01-.148.002-.05.006-.098.006-.147 0-.05-.004-.099-.007-.148-.003-.05-.004-.099-.01-.148-.005-.049-.015-.098-.023-.148-.008-.043-.012-.086-.021-.129l-1.816-8.196c-2.424-10.934-2.424-15.066 0-26l1.816-8.196c.01-.043.013-.086.02-.13.01-.049.02-.098.025-.147.005-.05.006-.099.01-.148.002-.05.006-.098.006-.148 0-.049-.004-.098-.007-.147-.003-.05-.004-.099-.01-.148-.005-.05-.015-.099-.023-.148-.008-.043-.012-.086-.021-.13l-1.816-8.196c-2.424-10.934-2.424-15.064 0-25.999l1.816-8.196A2.645 2.645 0 0 0 89.886 0H56.964a2.646 2.646 0 0 0-2.583 3.218l1.816 8.196c2.423 10.935 2.423 15.065 0 26l-.101.457a35.641 35.641 0 0 0-12.69-11.607c-7.982-4.416-16.935-5.725-24.56-3.592a2.645 2.645 0 0 0-1.825 3.298c2.246 7.594 8.112 14.482 16.094 18.897a35.522 35.522 0 0 0 17.04 4.593 28.829 28.829 0 0 0 4.737-.4l1.305 5.891c2.423 10.934 2.423 15.065 0 26l-1.816 8.196c-.01.043-.014.086-.021.13-.009.049-.019.097-.024.147-.006.05-.007.099-.01.148-.002.05-.007.098-.007.147 0 .05.005.099.007.148.003.049.004.099.01.148.005.05.015.099.024.148.007.043.012.086.02.13l1.817 8.195c2.423 10.935 2.423 15.065 0 26l-1.632 7.366c-13.741 9.697-21.291 22.536-21.291 36.283 0 14.346 8.181 27.657 23.036 37.479a5.057 5.057 0 0 1 1.745 6.549l-4.847 9.323a2.65 2.65 0 0 0 1.05 3.526c.396.223.843.34 1.297.34h96.946a2.644 2.644 0 0 0 2.347-3.866l-4.847-9.323a5.05 5.05 0 0 1-.387-3.61 5.05 5.05 0 0 1 2.133-2.939c14.855-9.822 23.036-23.133 23.036-37.48 0-13.915-7.739-26.899-21.802-36.637l-1.554-7.012c-2.423-10.934-2.423-15.065 0-26l1.131-5.101c1.419.215 2.852.323 4.287.325a35.528 35.528 0 0 0 17.039-4.593c7.983-4.416 13.849-11.303 16.095-18.897a2.638 2.638 0 0 0-.222-2.03Zm-67.619-14.384-1.103-4.978h26.33l-1.103 4.978c-2.578 11.633-2.578 16.657 0 28.29l1.103 4.978h-26.33l1.103-4.978c2.577-11.633 2.578-16.657 0-28.29Zm0 43.537-1.103-4.978h26.33l-1.103 4.978c-2.578 11.633-2.578 16.656 0 28.289l1.103 4.978h-26.33l1.103-4.978c2.577-11.633 2.578-16.656 0-28.289Zm-60.775 0-1.103-4.978h26.33l-1.103 4.978c-2.578 11.633-2.578 16.656 0 28.289l1.103 4.978H60.26l1.103-4.978c2.578-11.633 2.578-16.656 0-28.289Zm0-43.537-1.103-4.978h26.33l-1.103 4.978c-2.578 11.633-2.578 16.657 0 28.29l1.103 4.978H60.26l1.103-4.978c2.578-11.633 2.578-16.657 0-28.29Zm0-43.536L60.26 5.29h26.33l-1.103 4.979c-2.578 11.632-2.578 16.656 0 28.289l1.103 4.978H60.26l1.103-4.978c2.578-11.633 2.578-16.657 0-28.29ZM35.677 40.237c-5.786-3.2-10.241-7.859-12.575-13.057 5.642-.787 11.956.513 17.743 3.714 5.786 3.2 10.241 7.859 12.575 13.057-5.644.785-11.957-.514-17.743-3.714Zm133.815 127.899c0 12.513-7.339 24.256-20.663 33.067a10.329 10.329 0 0 0-3.522 13.403l2.837 5.457H59.913l2.837-5.457a10.335 10.335 0 0 0-3.522-13.403c-13.325-8.811-20.663-20.554-20.663-33.066 0-12.1 6.896-23.522 19.44-32.235h92.047c12.544 8.713 19.44 20.134 19.44 32.234Zm1.831-83.648c-5.786 3.2-12.099 4.501-17.743 3.714 2.334-5.198 6.789-9.857 12.575-13.057 5.787-3.201 12.099-4.5 17.743-3.714-2.333 5.198-6.789 9.856-12.575 13.057Z" mask="url(#a)"/></g></svg>