<svg xmlns="http://www.w3.org/2000/svg" width="32" height="32" fill="none"><path fill="currentColor" stroke="currentColor" stroke-width=".3" d="M19.937 1.77c-2.274 0-4.133.725-5.424 2.048-1.29 1.322-1.996 3.226-1.996 5.555v2.972H8.9a.816.816 0 0 0-.817.816v5.134a.816.816 0 0 0 .817.816h3.617v10.144a.816.816 0 0 0 .816.816h5.304a.816.816 0 0 0 .817-.816V19.11h3.605a.817.817 0 0 0 .81-.71l.662-5.133a.817.817 0 0 0-.81-.923h-4.267V9.883c0-.65.069-1.052.294-1.302.22-.245.63-.382 1.433-.382H23.9a.817.817 0 0 0 .817-.816V2.789a.817.817 0 0 0-.71-.81h-.005a37.46 37.46 0 0 0-4.065-.209Zm0 0v.15-.15Zm-1.301 12.21a.816.816 0 0 1-.815-.817v-3.28c0-.686.082-1.518.554-2.18.478-.672 1.334-1.137 2.805-1.137l-2.544 7.413Zm0 0h4.157l-.453 3.5h-3.703a.817.817 0 0 0-.816.816v10.14H14.15v-10.14a.817.817 0 0 0-.817-.817H9.718v-3.5h3.615a.816.816 0 0 0 .817-.816v-3.79c0-1.887.546-3.376 1.532-4.392.986-1.016 2.428-1.578 4.255-1.578 1.26 0 2.405.065 3.146.126v3.036l-1.903.001-2.544 7.413Z"/></svg>