<svg xmlns="http://www.w3.org/2000/svg" width="176" height="197" fill="none"><path fill="#121212" stroke="#F8F8F8" stroke-width="1.5" d="m135.372 66.831-.028-1.365c-.224-10.906-1.999-20.563-5.297-28.094l.687-.3-.687.3a2.266 2.266 0 0 0-.606-.815l.485-.571-.485.572a2.264 2.264 0 0 0-1.918-.49c-.336.07-.652.215-.923.425l-.459-.593.459.593c-7.107 5.499-13.829 14.099-19.592 24.808l-.832 1.546-.542-1.67c-3.197-9.858-7.367-18.271-12.336-24.64a2.255 2.255 0 0 0-3.557 0m45.631 30.294L89.741 36.537m45.631 30.294 1.137-.756a123.487 123.487 0 0 1 31.745-15.106 2.26 2.26 0 0 1 2.617 1.175 2.255 2.255 0 0 1-.661 2.8c-4.567 3.45-8.66 8.698-12.288 14.843-3.632 6.153-6.823 13.248-9.569 20.436-5.492 14.375-9.228 29.185-11.155 37.707l-.06.267.126.243a124.586 124.586 0 0 1 1.941 110.631 9.37 9.37 0 0 1-8.42 5.26h-78.57a9.385 9.385 0 0 1-8.421-5.26 124.6 124.6 0 0 1 2.047-110.839l.001-.003.586-1.108.131-.247-.063-.272c-2.056-8.906-5.83-23.472-11.272-37.464C29.8 75.188 22.658 61.644 13.79 54.944a2.256 2.256 0 0 1 1.956-3.975 123.115 123.115 0 0 1 30.807 14.49l1.125.734.035-1.343c.277-10.653 2.043-20.09 5.279-27.478a2.255 2.255 0 0 1 3.447-.879c7.106 5.498 13.827 14.097 19.59 24.803l.831 1.546.542-1.67c3.198-9.855 7.37-18.266 12.339-24.635m45.631 30.294L89.15 36.076l.591.461M36.303 185.682a120.918 120.918 0 0 0 5.052 34.553l.194.65.666-.129c.104-.02.21-.031.315-.034h97.862c.127.001.254.015.379.041l.674.14.197-.66a120.89 120.89 0 0 0 5.055-34.56 118.943 118.943 0 0 0-12.69-53.726l-.208-.413H49.2l-.208.413a118.945 118.945 0 0 0-12.69 53.725Zm0 0v-.001h.75m-.75.001v.001l.75-.002m0 0a118.201 118.201 0 0 1 12.61-53.387m-12.61 53.387a120.156 120.156 0 0 0 5.02 34.339c.148-.028.298-.044.448-.048l7.141-87.678m0 0h83.675-83.675Zm77.743-89.202-.368-1.114-.857.801c-6.626 6.2-12.862 15.425-18.064 26.42l-.114.242.064.259a155.128 155.128 0 0 1 3.251 17.381l.223 1.734 1.103-1.356a100.853 100.853 0 0 1 17.854-17.138l.295-.22.006-.369c.163-10.092-.958-19.27-3.393-26.64Zm-35.258-.415-.627-.954-.627.954c-10.086 15.346-16.19 41.04-16.19 68.458 0 5.157.23 10.24.647 15.21l.058.687H107.632l.058-.687c.417-4.97.647-10.053.647-15.21 0-27.418-6.104-53.112-16.19-68.458Zm-35.288.102-.856-.8-.368 1.113C53.258 50.284 52.134 59.196 52.232 69l.004.376.303.222a102.045 102.045 0 0 1 17.996 16.857l1.09 1.303.228-1.684a154.165 154.165 0 0 1 3.12-16.376l.064-.26-.115-.24C69.722 58.203 63.486 48.977 56.86 42.78Zm14.042 51.863.024-.276-.161-.225C57.792 75.995 38.8 65.291 26.583 59.873l-2.567-1.138 1.657 2.267c6.84 9.355 12.365 21.987 16.603 34.173 4.234 12.176 7.166 23.855 8.838 31.272l.132.585H70.87l-.065-.81a189.177 189.177 0 0 1 .096-31.58Zm64.234 142.483.004-.008a113.858 113.858 0 0 0 4.534-10.881l.359-1.002H42.968l.358 1.002a113.985 113.985 0 0 0 4.535 10.881l.004.008a4.837 4.837 0 0 0 1.79 1.971l.395-.638-.394.638c.77.476 1.657.726 2.562.723h78.563a4.83 4.83 0 0 0 4.354-2.694Zm-2.981-110.093h.599l.132-.585c1.672-7.415 4.603-19.09 8.836-31.262 4.236-12.182 9.758-24.812 16.595-34.168l1.657-2.27-2.568 1.142c-12.302 5.466-31.468 16.276-44.419 34.596l-.137.194v32.353h19.305Z" opacity=".05"/></svg>