<svg xmlns="http://www.w3.org/2000/svg" width="395" height="246" fill="none"><path fill="#fff" d="M362.775 111.124a9.835 9.835 0 0 0-9.282-3.813c-33.174 4.859-64.124 19.273-91.486 42.331a60.398 60.398 0 0 0-2.512-7.069c-1.694-4.191-3.446-8.524-2.616-11.612.64-2.383 3.966-5.016 7.182-7.561 3.989-3.157 8.509-6.735 10.553-11.733 1.825-4.463 1.143-9.579.483-14.526a49.727 49.727 0 0 1-.634-7.34 7.475 7.475 0 0 0-3.889-6.72 7.554 7.554 0 0 0-7.84.315c-24.425 16.19-42.358 40.388-52.744 70.854-10.387-30.46-28.303-54.667-52.724-70.854a7.556 7.556 0 0 0-7.841-.314 7.471 7.471 0 0 0-3.889 6.719 50 50 0 0 1-.633 7.34c-.66 4.947-1.343 10.062.482 14.525 2.043 4.998 6.565 8.577 10.554 11.734 3.216 2.545 6.542 5.177 7.182 7.56.83 3.088-.922 7.422-2.616 11.613a60.398 60.398 0 0 0-2.512 7.069c-27.363-23.059-58.312-37.472-91.487-42.331a9.838 9.838 0 0 0-9.28 3.811 9.844 9.844 0 0 0-1.121 9.968 89.072 89.072 0 0 1 3.087 8.408c2.114 6.397 4.3 13.012 8.96 17.19 5.268 4.723 12.56 6.335 19.61 7.895 6.148 1.36 11.955 2.645 14.601 5.696 3.317 3.825 3.779 10.643 4.226 17.237.447 6.602.91 13.429 4.252 18.525 3.983 6.07 10.972 9.763 17.138 13.021 5.459 2.886 10.615 5.61 12.234 9.046 2.469 5.24.89 12.326-.637 19.18a76.037 76.037 0 0 0-1.76 9.934h-9.64a4.5 4.5 0 0 0-4.5 4.5v18.465a327.603 327.603 0 0 0 17.226 104.937l6.066 17.977h-7.752a4.499 4.499 0 0 0-4.5 4.5v27.763a4.497 4.497 0 0 0 4.5 4.5h141.568a4.499 4.499 0 0 0 4.5-4.5v-27.763a4.499 4.499 0 0 0-4.5-4.5h-7.751l6.066-17.977a327.602 327.602 0 0 0 17.225-104.937v-18.464a4.499 4.499 0 0 0-4.5-4.5h-9.64a75.69 75.69 0 0 0-1.76-9.935c-1.526-6.853-3.105-13.94-.637-19.18 1.62-3.436 6.776-6.161 12.235-9.045 6.166-3.259 13.154-6.952 17.138-13.022 3.342-5.096 3.805-11.923 4.251-18.525.448-6.594.909-13.411 4.226-17.237 2.646-3.051 8.452-4.336 14.601-5.695 7.051-1.56 14.342-3.173 19.61-7.896 4.66-4.178 6.846-10.793 8.96-17.19a89.11 89.11 0 0 1 3.087-8.407 9.842 9.842 0 0 0-1.12-9.967Zm-97.248-18.747c.122 2.005.389 4.002.649 5.954.504 3.778 1.025 7.686.108 9.929-1.15 2.813-4.535 5.492-7.808 8.083-4.364 3.453-8.875 7.025-10.289 12.282-1.613 6 .819 12.015 2.963 17.321 1.403 3.469 2.853 7.057 2.552 9.376a9.698 9.698 0 0 1-.623 2.273 252.248 252.248 0 0 0-31.625 36.237 298.236 298.236 0 0 0-11.45 17.089c-.345-.555-.711-1.12-1.063-1.678.43-8.763 1.41-17.49 2.935-26.129 7.222-40.515 25.265-71.027 53.651-90.737Zm-99.23 62.945c-.3-2.319 1.15-5.906 2.552-9.375 2.145-5.307 4.577-11.322 2.964-17.322-1.413-5.257-5.925-8.829-10.289-12.282-3.274-2.59-6.658-5.27-7.809-8.083-.917-2.243-.396-6.15.109-9.929.26-1.952.527-3.95.649-5.955 25.293 17.564 42.37 43.717 50.9 77.878a199.159 199.159 0 0 0-2.358 11.281 215.272 215.272 0 0 0-2.177 15.534 274.021 274.021 0 0 0-2.293-3.237 252.248 252.248 0 0 0-31.625-36.238 9.725 9.725 0 0 1-.623-2.272Zm-17.943 58.95c-2.9-6.153-9.646-9.719-16.17-13.166-5.46-2.886-11.106-5.869-13.818-10.002-2.048-3.122-2.412-8.501-2.798-14.196-.522-7.697-1.112-16.42-6.406-22.525-4.595-5.299-12.15-6.971-19.456-8.587-5.917-1.309-12.037-2.663-15.546-5.809-2.875-2.577-4.598-7.791-6.422-13.312a95.663 95.663 0 0 0-3.427-9.28.847.847 0 0 1 .891-1.178c26.927 3.943 52.234 14.37 75.218 30.992 18.485 13.367 35.535 30.755 50.676 51.68a301.992 301.992 0 0 1 28.349 48.334h-72.579c.36-2.683.859-5.346 1.495-7.977 1.769-7.944 3.775-16.948-.007-24.974Zm127.93 206.592H143.715v-18.763h132.569v18.763Zm11.04-150.677a318.617 318.617 0 0 1-16.752 102.06l-7.037 20.854h-107.07l-7.036-20.854a318.61 318.61 0 0 1-16.754-102.06v-13.964h154.649v13.964Zm68.366-152.793a95.447 95.447 0 0 0-3.427 9.28c-1.824 5.521-3.548 10.736-6.423 13.313-3.51 3.146-9.629 4.5-15.547 5.809-7.305 1.617-14.86 3.288-19.455 8.587-5.294 6.105-5.885 14.828-6.406 22.525-.385 5.695-.749 11.074-2.798 14.196-2.712 4.133-8.357 7.116-13.817 10.002-6.525 3.448-13.271 7.013-16.17 13.167-3.783 8.025-1.777 17.029-.007 24.973a77.9 77.9 0 0 1 1.494 7.977h-43.736a311.817 311.817 0 0 0-14.161-27.57 287.787 287.787 0 0 1 13.666-20.764c15.143-20.926 32.192-38.314 50.676-51.681 22.984-16.621 48.291-27.048 75.219-30.992a.849.849 0 0 1 .957.739.847.847 0 0 1-.065.439Z" opacity=".2"/></svg>