<svg xmlns="http://www.w3.org/2000/svg" width="441" height="313" fill="none"><path fill="#fff" d="M346.28 148.612a4.413 4.413 0 0 0-3.538-4.104 116.7 116.7 0 0 0-24.595-2.098.872.872 0 0 1-.646-.177.868.868 0 0 1-.326-.585.813.813 0 0 1 .541-1.036 98.731 98.731 0 0 1 21.975-6.799 4.426 4.426 0 0 0 1.672-.672 4.426 4.426 0 0 0 1.909-2.97c.097-.6.069-1.213-.082-1.802a106.364 106.364 0 0 0-14.117-31.973 4.343 4.343 0 0 0-.258-.354l-1.378-1.706a4.41 4.41 0 0 0-4.379-1.535 129.779 129.779 0 0 0-32.214 12.179 1.72 1.72 0 0 1-2.302-.461 1.645 1.645 0 0 1 .021-2.272 112.622 112.622 0 0 1 22.293-20.91 4.408 4.408 0 0 0 1.85-3.002 4.436 4.436 0 0 0-.937-3.4l-1.814-2.246a64.085 64.085 0 0 0-18.986-16.342 64.004 64.004 0 0 0-23.791-7.807 28.92 28.92 0 0 0-23.897 7.986 28.986 28.986 0 0 0-7.01 10.869 29.025 29.025 0 0 0-1.589 12.84l.881 9.789a8.375 8.375 0 0 1-2.348 6.594 8.342 8.342 0 0 1-6.534 2.492l-9.794-.67a28.91 28.91 0 0 0-12.787 1.867 28.95 28.95 0 0 0-10.702 7.251 29.008 29.008 0 0 0-7.46 24.093 64.156 64.156 0 0 0 8.29 23.62 64.083 64.083 0 0 0 16.695 18.639l2.334 1.806a4.397 4.397 0 0 0 1.809.817c-3.384 36.358-4.186 83.154-2.394 139.797h-27.056c4.625-45.271 2.66-77.25-2.361-99.839a63.25 63.25 0 0 0 5.737-29.401 29.002 29.002 0 0 0-11.766-22.303 28.926 28.926 0 0 0-24.765-4.629l-9.503 2.465a8.332 8.332 0 0 1-6.88-1.244 8.363 8.363 0 0 1-3.521-6.048l-.937-9.784a28.996 28.996 0 0 0-12.815-21.717 28.93 28.93 0 0 0-24.957-3.441 63.99 63.99 0 0 0-21.924 12.04 64.074 64.074 0 0 0-15.645 19.53l-1.4 2.599a4.418 4.418 0 0 0 2.075 6.125 112.582 112.582 0 0 1 25.76 16.438 1.646 1.646 0 0 1 .438 2.23 1.717 1.717 0 0 1-2.178.878A129.747 129.747 0 0 0 47.07 174.2a4.449 4.449 0 0 0-4.022 2.318l-1.04 1.93c-.069.129-.132.261-.188.396a106.409 106.409 0 0 0-7.992 34.03 4.42 4.42 0 0 0 2.675 4.353c.558.238 1.16.357 1.767.352a98.976 98.976 0 0 1 22.85 2.629.807.807 0 0 1 .722.918.86.86 0 0 1-.815.929 117.203 117.203 0 0 0-23.788 6.599 4.418 4.418 0 0 0-2.722 4.686c.46 3.417 1.066 6.717 1.8 9.807l8.205 34.538a12.625 12.625 0 0 0 4.444 6.976 12.594 12.594 0 0 0 9.266 2.636l35.222-4.094c3.15-.366 6.454-.925 9.819-1.66a4.415 4.415 0 0 0 3.467-4.164c.221-8.258-.43-16.516-1.941-24.638a.85.85 0 0 1 .067-.667.867.867 0 0 1 .525-.417.806.806 0 0 1 1.109.366 98.959 98.959 0 0 1 10.283 20.599 4.408 4.408 0 0 0 5.935 2.569 106.161 106.161 0 0 0 29.206-19.158 4.32 4.32 0 0 0 .307-.313l1.456-1.639a4.414 4.414 0 0 0 .799-4.575 130.097 130.097 0 0 0-17.253-29.837 1.723 1.723 0 0 1 .079-2.349 1.641 1.641 0 0 1 2.242-.35 112.519 112.519 0 0 1 24.239 18.613 4.418 4.418 0 0 0 5.013.932 4.414 4.414 0 0 0 1.445-1.074l1.918-2.158a64.496 64.496 0 0 0 4.412-5.402c3.426 21.04 4.272 49.621.201 88.449h-55.174a4.404 4.404 0 0 0-3.445 1.659 4.41 4.41 0 0 0-.857 3.729l25.339 112.37a25.433 25.433 0 0 0 8.943 14.375 25.386 25.386 0 0 0 15.975 5.569h60.76a25.386 25.386 0 0 0 15.975-5.569 25.443 25.443 0 0 0 8.944-14.376l25.339-112.369a4.424 4.424 0 0 0-.857-3.73 4.404 4.404 0 0 0-3.445-1.658h-52.78c-2.199-69.302-.27-116.549 3.326-148.75a119.541 119.541 0 0 1 15.203-15.682 1.645 1.645 0 0 1 2.269-.068 1.723 1.723 0 0 1 .51 2.294 130.063 130.063 0 0 0-11.468 32.509 4.424 4.424 0 0 0 1.627 4.35l1.733 1.342a4.9 4.9 0 0 0 .359.25 106.134 106.134 0 0 0 32.232 13.443 4.407 4.407 0 0 0 4.725-1.933 4.439 4.439 0 0 0 .635-1.688 98.947 98.947 0 0 1 6.317-22.142.81.81 0 0 1 .7-.598.8.8 0 0 1 .322.034.851.851 0 0 1 .753.615c.032.11.042.226.029.341.009 8.261.889 16.498 2.626 24.574a4.416 4.416 0 0 0 4.173 3.453c1.086.032 2.161.048 3.226.048 2.31 0 4.564-.076 6.732-.227l35.372-2.475a12.595 12.595 0 0 0 8.125-3.762 12.627 12.627 0 0 0 3.582-8.214l1.708-35.46c.153-3.174.141-6.529-.035-9.972Zm-179.539 77.492a124.835 124.835 0 0 0-22.753-16.769 10.378 10.378 0 0 0-13.279 2.13 10.591 10.591 0 0 0-.508 13.534 124.133 124.133 0 0 1 15.019 25.203 97.388 97.388 0 0 1-21.858 14.936 111.29 111.29 0 0 0-9.455-17.91 9.758 9.758 0 0 0-5.224-3.997 9.745 9.745 0 0 0-6.57.228 9.762 9.762 0 0 0-4.935 4.349 9.782 9.782 0 0 0-1.06 6.497 112.436 112.436 0 0 1 1.858 19.295 87.263 87.263 0 0 1-5.54.831l-35.22 4.093a3.781 3.781 0 0 1-4.112-2.883l-8.206-34.537a87.4 87.4 0 0 1-1.114-5.496 111.937 111.937 0 0 1 18.744-4.852 9.757 9.757 0 0 0 5.735-3.218 9.778 9.778 0 0 0 .361-12.39 9.75 9.75 0 0 0-5.537-3.548 110.86 110.86 0 0 0-20.043-2.771 97.62 97.62 0 0 1 6.542-25.673c9.78.691 19.445 2.541 28.79 5.511 2.355.75 4.898.65 7.187-.283a10.574 10.574 0 0 0 5.342-4.822 10.41 10.41 0 0 0-2.543-13.223 124.802 124.802 0 0 0-23.521-15.672 55.147 55.147 0 0 1 31.603-25.838 20.1 20.1 0 0 1 17.467 2.347 20.147 20.147 0 0 1 6.216 6.576 20.18 20.18 0 0 1 2.714 8.637l.936 9.784a17.165 17.165 0 0 0 4.142 9.621c-.396.28-.743.625-1.026 1.02l-50.986 72.904a4.423 4.423 0 0 0-.131 4.926 4.408 4.408 0 0 0 7.356.139l50.986-72.904c.274-.401.479-.845.607-1.314a17.093 17.093 0 0 0 10.446.606l9.503-2.466a20.12 20.12 0 0 1 23.22 10.071 20.2 20.2 0 0 1 2.29 8.758 55.27 55.27 0 0 1-13.443 38.57Zm77.896 206.038a16.658 16.658 0 0 1-5.855 9.413 16.628 16.628 0 0 1-10.459 3.646h-60.76a16.628 16.628 0 0 1-10.459-3.646 16.66 16.66 0 0 1-5.856-9.413L127.125 325.16h141.637l-24.125 106.982Zm92.868-273.984-1.708 35.46a3.783 3.783 0 0 1-3.512 3.592l-35.371 2.475a86.98 86.98 0 0 1-5.598.204 112.197 112.197 0 0 1-1.725-19.307 9.72 9.72 0 0 0-2.238-6.218 9.702 9.702 0 0 0-5.693-3.345 10.008 10.008 0 0 0-1.899-.183 9.635 9.635 0 0 0-8.958 6.072 111.38 111.38 0 0 0-5.997 19.347 97.365 97.365 0 0 1-24.232-10.647 124.201 124.201 0 0 1 10.125-27.542 10.6 10.6 0 0 0-2.99-13.209 10.38 10.38 0 0 0-6.788-2.296 10.377 10.377 0 0 0-6.656 2.653 124.808 124.808 0 0 0-19.278 20.68 55.22 55.22 0 0 1-20.31-35.43 20.17 20.17 0 0 1 12.655-21.941 20.108 20.108 0 0 1 8.954-1.273l9.794.67a17.108 17.108 0 0 0 10.156-2.522c.212.437.495.836.838 1.179l63.53 62.251a4.406 4.406 0 0 0 6.236-.067 4.42 4.42 0 0 0-.067-6.245l-63.53-62.25a4.35 4.35 0 0 0-1.195-.814 17.17 17.17 0 0 0 2.3-10.22l-.881-9.79a20.158 20.158 0 0 1 13.71-21.295 20.109 20.109 0 0 1 9.004-.833 55.145 55.145 0 0 1 35.815 19.566 124.87 124.87 0 0 0-20.233 19.742 10.402 10.402 0 0 0-.067 13.465 10.56 10.56 0 0 0 13.255 2.708 123.898 123.898 0 0 1 27.284-10.727 97.616 97.616 0 0 1 11.154 24.025 110.964 110.964 0 0 0-19.19 6.421 9.765 9.765 0 0 0-5.637 11.036 9.759 9.759 0 0 0 9.711 7.69c6.464-.123 12.927.316 19.316 1.31a87.56 87.56 0 0 1-.084 5.608Z" opacity=".2"/></svg>