<svg xmlns="http://www.w3.org/2000/svg" width="126" height="126" fill="none"><path fill="#285A43" stroke="#285A43" d="M101.982 76.331H103.657a1.606 1.606 0 0 1 1.607 1.608v1.674a15.91 15.91 0 0 1-15.893 15.893h-.067v6.381a30.683 30.683 0 0 1 14.989 4.815 1.615 1.615 0 0 1 .711 1.009l-.488.109.488-.109a1.597 1.597 0 0 1-.216 1.219 1.609 1.609 0 0 1-2.232.477 27.568 27.568 0 0 0-29.721.001l29.147-33.077Zm0 0a15.915 15.915 0 0 0-14.286 8.94m14.286-8.94-14.286 8.94m0 0a15.915 15.915 0 0 0-14.286-8.94h-1.674a1.607 1.607 0 0 0-1.608 1.608v1.674a15.911 15.911 0 0 0 15.894 15.894h.067v6.38a30.678 30.678 0 0 0-14.991 4.816 10.36 10.36 0 0 1-11.18 0 30.678 30.678 0 0 0-14.99-4.816v-6.38h.067A15.911 15.911 0 0 0 60.89 79.613v-1.674a1.607 1.607 0 0 0-1.607-1.607h-1.675a15.916 15.916 0 0 0-14.286 8.94 15.916 15.916 0 0 0-14.286-8.94H27.36a1.607 1.607 0 0 0-1.607 1.607v1.674a15.91 15.91 0 0 0 15.893 15.894h.067v6.381a30.666 30.666 0 0 0-14.99 4.815 1.607 1.607 0 0 0-.484 2.221 1.608 1.608 0 0 0 2.22.484l59.237-24.137ZM43.321 105.06a27.562 27.562 0 0 0-14.861 4.349l14.86-4.349Zm0 0a27.564 27.564 0 0 1 14.86 4.349m-14.86-4.349 14.86 4.349m0 0a13.582 13.582 0 0 0 7.327 2.146m-7.326-2.146 7.326 2.146m0 0c2.597 0 5.14-.745 7.327-2.146l-7.327 2.146Zm-7.9-32.008h.066v.066a12.694 12.694 0 0 1-12.68 12.68h-.066v-.066a12.694 12.694 0 0 1 12.68-12.68Zm-28.64.066v-.066h.066a12.694 12.694 0 0 1 12.68 12.68v.066h-.067a12.694 12.694 0 0 1-12.68-12.68Zm44.375 0v-.066h.066a12.695 12.695 0 0 1 12.68 12.68v.066h-.066a12.694 12.694 0 0 1-12.68-12.68Zm28.706 0a12.692 12.692 0 0 1-12.68 12.68h-.065v-.066a12.694 12.694 0 0 1 12.679-12.68h.066v.066ZM36.924 61.32 19.997 44.393a5.11 5.11 0 0 1 .84-7.906l.271.42-.27-.42 5.968-3.857-1.213-1.213a8.643 8.643 0 0 1 0-12.21l2.232-2.232a8.634 8.634 0 0 1 12.21 0l-.354.354.354-.354 5.22 5.22.001.002.015.015 13.874 13.874a1.608 1.608 0 0 1 .214 2.009l-2.869 4.44 9.453 1.177 3.607-2.276.267.423-.267-.423a1.608 1.608 0 0 1 2.465 1.36v9.95a1.607 1.607 0 0 1-.83 1.408l-.242-.438.241.438a1.608 1.608 0 0 1-1.634-.049l-3.607-2.276-16.81 2.094-4.263 6.596-7.946.8Zm0 0 .04.04a5.087 5.087 0 0 0 4.154 1.468l-.053-.497a4.59 4.59 0 0 0 1.93-.656l-6.071-.355Zm29.193-14.346c.369.045.741-.038 1.055-.236h.001L68.8 45.71v4.12l-1.627-1.028a1.61 1.61 0 0 0-1.056-.235L51.409 50.4l3.144-4.867 11.564 1.44ZM21.725 40.58v-.002a1.885 1.885 0 0 1 .856-1.39v-.001l21.335-13.784 12.038 12.038L42.17 58.775a1.897 1.897 0 0 1-2.933.312L22.27 42.12v-.001a1.885 1.885 0 0 1-.545-1.54Zm6.141-11.436a5.426 5.426 0 0 1 0-7.664l2.232-2.232a5.42 5.42 0 0 1 7.663 0l3.83 3.83-12.023 7.768-1.702-1.702ZM91.095 59.723l-4.136-3.69.316-.386a1.606 1.606 0 0 0-2.037 2.487l.002.001a17.493 17.493 0 0 1 3.227 3.44 1.608 1.608 0 0 0 2.628-1.852ZM91.392 70.384a17.696 17.696 0 0 0-.833-4.64l.476-.154-.475.156a1.607 1.607 0 0 1 1.027-2.027l-.195 6.665Zm0 0v.003m0-.003v.003m0 0a1.607 1.607 0 0 0 1.605 1.529m-1.605-1.53 1.605 1.53m0 0c.027 0 .052 0 .074-.002m-.074.002.074-.002m0 0h.005m-.005 0h.005m0 0a1.608 1.608 0 0 0 1.528-1.682 20.908 20.908 0 0 0-.988-5.484m-.54 7.166.54-7.166m0 0-.001-.002m0 .002v-.002m0 0a1.608 1.608 0 0 0-.8-.934l-.221.435m1.021.5-1.021-.5m0 0 .22-.435a1.608 1.608 0 0 0-.604-.169m.384.604-.384-.604m0 0c-.21-.016-.422.01-.622.075l.622-.075ZM81.191 55.533l.004.002a1.607 1.607 0 0 0 2.245-1.945l-.474.158.474-.158a1.607 1.607 0 0 0-.803-.929 24.431 24.431 0 0 0-5.21-1.953l-.009-.003-.009-.001a1.607 1.607 0 0 0-.694 3.138c1.55.397 3.051.964 4.476 1.69ZM96.824 51.865l.005.003c1.3.942 2.49 2.025 3.551 3.228a1.608 1.608 0 0 0 2.413-2.124 24.931 24.931 0 0 0-4.077-3.706l-.005-.004a1.608 1.608 0 0 0-1.887 2.603ZM88.028 47.87a1.607 1.607 0 0 1 .78-3.119h.002a30.886 30.886 0 0 1 5.15 1.774l-5.932 1.345Zm0 0h.003m-.003 0h.003m0 0c1.581.393 3.125.924 4.613 1.588m-4.613-1.587 4.613 1.587m0 0a1.607 1.607 0 1 0 1.317-2.933l-1.317 2.933ZM105.957 57.468l-.001-.002a1.618 1.618 0 0 0-.964-.764 1.611 1.611 0 0 0-1.987 1.106 1.609 1.609 0 0 0 .142 1.222l.437-.243-.438.242a26.36 26.36 0 0 1 1.948 4.45v.001a1.608 1.608 0 0 0 3.049-1.019 29.536 29.536 0 0 0-2.186-4.993ZM83.178 47.053c-.986-.09-1.97-.136-2.923-.136-.604 0-1.088.019-1.42.038a12.15 12.15 0 0 0-.513.037 1.607 1.607 0 0 1-.34-3.197h.005c.048-.005.89-.093 2.268-.093 1.052 0 2.133.05 3.216.15l-.293 3.2Zm0 0a1.607 1.607 0 0 0 .293-3.202l-.046.498a1.108 1.108 0 1 1-.202 2.206l-.045.498Z"/></svg>