<svg xmlns="http://www.w3.org/2000/svg" width="126" height="126" fill="none"><path fill="#285A43" stroke="#285A43" d="M100.301 22.163c-17.751 0-32.55 12.874-35.552 29.775A25.204 25.204 0 0 0 42.102 37.74a1.607 1.607 0 0 0-1.608 1.608 25.196 25.196 0 0 0 23.698 25.12v11.235a42.334 42.334 0 0 0-4.53.42 18.725 18.725 0 1 0 1.297 3.063 39.154 39.154 0 0 1 4.887-.305 39.041 39.041 0 0 1 21.064 6.177 1.606 1.606 0 0 0 2.449-1.695 1.608 1.608 0 0 0-.712-1.01 42.23 42.23 0 0 0-21.24-6.651v-15.86c19.168-.844 34.501-16.7 34.501-36.071a1.606 1.606 0 0 0-1.607-1.608ZM65.713 78.876h.003-.003ZM84.54 41.641l-.46-.196.46.196a1.607 1.607 0 0 0-2.629-1.754l-.002.003-14.243 14.242c1.975-15.657 14.997-27.92 30.987-28.713-.793 15.99-13.057 29.012-28.714 30.986l14.243-14.242.002-.003c.152-.148.273-.324.356-.519Zm-26.924 5.75a21.983 21.983 0 0 1 6.373 13.844A21.983 21.983 0 0 1 43.773 41.02a21.983 21.983 0 0 1 13.843 6.373Zm-14.64 53.231a15.67 15.67 0 1 1 15.671-15.671 15.689 15.689 0 0 1-15.67 15.671Z"/><path fill="#285A43" stroke="#285A43" d="M50.955 84.635h-6.37v-7.558a1.608 1.608 0 0 0-3.215 0v9.165a1.608 1.608 0 0 0 1.607 1.607h7.978a1.608 1.608 0 0 0 0-3.215Z"/></svg>