<svg xmlns="http://www.w3.org/2000/svg" width="126" height="126" fill="none"><path fill="#285A43" stroke="#285A43" d="m71.526 55.548.354-.353 19.67 19.67a17.308 17.308 0 0 1 4.983 14.3 4.55 4.55 0 0 1-3.044 3.8l-.002.001-.162-.473c-.436.153-.894.23-1.355.231L71.526 55.548Zm0 0 .354-.353-5.504-5.505V29.944a10.7 10.7 0 0 0-10.687-10.688h-2.2a1.607 1.607 0 0 0-1.607 1.607v24.065L36.304 29.35a1.607 1.607 0 0 0-2.273 0l-1.555 1.555a10.699 10.699 0 0 0 0 15.114l17.869 17.87c.54.54 1.135 1.02 1.776 1.433v26.79a17.31 17.31 0 0 0 6.588 13.635 4.583 4.583 0 0 0 4.84.535 4.578 4.578 0 0 0 2.588-4.124V69.272L88.74 91.877l.002.001m-17.216-36.33 17.216 36.33m0 0 .354-.353-.354.353ZM51.9 49.493 35.167 32.76l-.417.418a7.482 7.482 0 0 0 0 10.568l17.868 17.87a7.473 7.473 0 0 0 10.568 0l5.284-5.285-7.61-7.61-8.96.772Zm0 0a1.608 1.608 0 0 0 2.273 0m-2.273 0h2.273m0 0 .771-.772.024-.023m-.795.795.795-.795m0 0a4.188 4.188 0 0 1 5.892.023l-5.892-.023Zm8.193-18.754v16.531l-.028-.027a7.409 7.409 0 0 0-8.036-1.612V22.47h.59a7.482 7.482 0 0 1 7.474 7.473Zm-2.454 73.284-.001-.001a14.1 14.1 0 0 1-5.37-11.112V66.708c2.455.604 5.052.323 7.327-.806h.104l.154.155v36.101a1.367 1.367 0 0 1-2.214 1.07Zm32.632-14.433v.001a1.366 1.366 0 0 1-.908 1.133l.165.473-.165-.472a1.366 1.366 0 0 1-.754.041l-.111.487.111-.487a1.365 1.365 0 0 1-.66-.366l-.354.354.353-.354L65.38 63.97l5.364-5.364 18.535 18.534a14.106 14.106 0 0 1 4.061 11.656Z"/><path fill="#285A43" stroke="#285A43" d="M62.584 56.33a4.682 4.682 0 1 0-9.365.003 4.682 4.682 0 0 0 9.365-.002Zm0 0-.5.002h.5v-.001Zm-3.644 1.038a1.466 1.466 0 1 1 .429-1.037v.002c0 .192-.037.383-.11.56l.461.191-.462-.19a1.454 1.454 0 0 1-.318.474Z"/></svg>