<svg xmlns="http://www.w3.org/2000/svg" width="126" height="126" fill="none"><path fill="#285A43" stroke="#285A43" d="M54.542 91.977a27.076 27.076 0 0 1 13.044-4.238v-7.14a14.617 14.617 0 0 1-13.987-14.587v-.993a1.607 1.607 0 0 1 1.607-1.607h.992a14.624 14.624 0 0 1 12.995 7.945 14.625 14.625 0 0 1 12.995-7.945h.992a1.608 1.608 0 0 1 1.608 1.607v.993A14.617 14.617 0 0 1 70.8 80.599M54.542 91.977l.002-.002.266.424-.27-.421.002-.001Zm0 0a1.607 1.607 0 1 0 1.736 2.705m0 0a23.959 23.959 0 0 1 25.83 0m-25.83 0-.002.001-.27-.42m.273.419a.068.068 0 0 0 .002-.002l-.274-.418m26.101.42a1.607 1.607 0 0 0 2.462-1.064l-.492-.088m-1.97 1.152a.068.068 0 0 1-.003-.002l.275-.418m-.272.42.002.001.27-.42m1.698-.733.492.088a1.608 1.608 0 0 0-.725-1.641m.233 1.553a1.107 1.107 0 0 0-.502-1.131m.502 1.131a1.107 1.107 0 0 1-1.698.732m1.465-2.285A27.077 27.077 0 0 0 70.8 87.739m13.044 4.238h.002l-.27.422m.268-.422-.003-.002-.266.424m-12.775-4.66v-7.14m0 7.14v.476h-.5m.5-.476c-.16-.01-.32-.017-.48-.024l-.02.5m.5-7.617c-.165.008-.33.012-.496.013l-.004-.5m.5.487v-.487h-.5m0 0v8.104m0-8.104a14.117 14.117 0 0 0 13.987-14.1v-.992a1.107 1.107 0 0 0-1.108-1.107h-.992L70.301 88.215m0 0a26.576 26.576 0 0 1 13.275 4.184m-13.275-4.184 13.275 4.184m0 0-29.258.696a1.107 1.107 0 0 0 1.689 1.167m26.373 0a24.458 24.458 0 0 0-26.373 0m8.24-24.296a11.4 11.4 0 0 1 3.32 7.415 11.401 11.401 0 0 1-10.735-10.736 11.4 11.4 0 0 1 7.415 3.321Zm9.893 0a11.4 11.4 0 0 1 7.415-3.32A11.4 11.4 0 0 1 70.819 77.38a11.4 11.4 0 0 1 3.32-7.415Z"/><path fill="#285A43" stroke="#285A43" d="m68.234 32.965.298.401-.298-.401-25.038 18.623v-22.64a6.283 6.283 0 1 0-12.567 0v34.271a11.267 11.267 0 0 0-5.035 10.025A11.38 11.38 0 0 0 36.56 83.981h.003a11.953 11.953 0 0 0 1.403-.042v17.789a1.61 1.61 0 0 0 1.608 1.607h59.24a1.608 1.608 0 0 0 1.608-1.607V56.286a1.615 1.615 0 0 0-.648-1.29l-29.62-22.031-.299.401.299-.401a1.608 1.608 0 0 0-1.92 0ZM33.01 65.533a1.607 1.607 0 0 0 .834-1.409V28.948a3.068 3.068 0 1 1 6.137 0v35.176a1.607 1.607 0 0 0 .833 1.41 8.12 8.12 0 1 1-7.804 0Zm64.196 34.588H41.18V83.156a11.337 11.337 0 0 0 2.016-19.935v-7.626l25.997-19.337 28.013 20.836v43.027Z"/><path fill="#285A43" stroke="#285A43" d="M35.53 74.805c.409.273.89.42 1.382.42l-1.382-.42Zm0 0a2.489 2.489 0 0 1-.917-1.117m.917 1.117-.917-1.117m0 0a2.489 2.489 0 0 1-.141-1.437m.141 1.437-.141-1.437m0 0c.096-.483.333-.926.68-1.274m-.68 1.274.68-1.274m0 0a2.488 2.488 0 0 1 1.275-.681m-1.274.68 1.274-.68m0 0a2.489 2.489 0 0 1 1.438.141m-1.438-.141 1.438.141m0 0c.454.189.843.508 1.116.917m-1.116-.917 1.116.917m0 0c.274.409.42.89.42 1.382m-.42-1.382.42 1.382m0 0a2.492 2.492 0 0 1-2.49 2.489l2.49-2.489Zm-7.116-3.332.406.292-.406-.292a5.703 5.703 0 1 0 6.235-2.138V31.45a1.607 1.607 0 0 0-2.744-1.137l.348.35-.348-.35c-.302.302-.471.71-.471 1.137v35.817a5.703 5.703 0 0 0-3.02 2.138ZM66.818 59.386l.484-8.52h.5v-.002a1.607 1.607 0 0 0-3.214.003v.012a.628.628 0 0 1-.164.439l-.016.017-.013.018a3.894 3.894 0 0 0 0 4.706l.01.013.01.012a.704.704 0 0 1 0 .923l-.009.01-.009.012a3.795 3.795 0 0 0-.794 2.36 1.608 1.608 0 0 0 3.215-.003ZM73.799 59.386l.484-8.52h.5v-.002a1.608 1.608 0 0 0-3.215.003v.012a.628.628 0 0 1-.164.439l-.015.017-.014.018a3.894 3.894 0 0 0 0 4.705l.01.014.01.012a.704.704 0 0 1 0 .923l-.008.01-.009.012a3.794 3.794 0 0 0-.794 2.36 1.607 1.607 0 0 0 3.215-.003Z"/></svg>