<svg xmlns="http://www.w3.org/2000/svg" width="258" height="228" fill="none"><g opacity=".05"><mask id="a" fill="#fff"><path d="M209.355 68.076a39.23 39.23 0 0 0 19.675-5.423 37.864 37.864 0 0 0 18.136-24.008 4.502 4.502 0 0 0-3.088-5.298 37.847 37.847 0 0 0-29.828 3.942 39.999 39.999 0 0 0-10.327 8.617 40.018 40.018 0 0 0-4.736-12.588 37.852 37.852 0 0 0-24.008-18.136 4.502 4.502 0 0 0-5.299 3.088 37.851 37.851 0 0 0 3.943 29.828 38.476 38.476 0 0 0 19.582 16.803c-1.462 7.928-3.722 21.878-5.598 40.804a49.564 49.564 0 0 0-5.712-8.284c-8.541-10.027-20.492-16.089-32.79-16.632a4.502 4.502 0 0 0-4.669 3.976c-1.42 12.229 2.664 24.992 11.204 35.018a46.69 46.69 0 0 0 29.698 16.366 697.923 697.923 0 0 0-.9 34.495 49.71 49.71 0 0 0-5.807-6.994c-9.313-9.313-21.704-14.393-34.013-13.963a4.503 4.503 0 0 0-4.336 4.337c-.44 12.301 4.649 24.699 13.962 34.012a46.698 46.698 0 0 0 30.84 13.944c.374 8.726.934 17.744 1.68 27.055H73.036c.76-9.3 1.32-18.318 1.68-27.055a46.699 46.699 0 0 0 30.84-13.944c9.313-9.313 14.403-21.711 13.963-34.012a4.505 4.505 0 0 0-1.315-3.022 4.507 4.507 0 0 0-3.022-1.315c-12.301-.431-24.699 4.65-34.013 13.963a49.647 49.647 0 0 0-5.806 6.994 697.498 697.498 0 0 0-.901-34.495 46.692 46.692 0 0 0 29.698-16.365c8.541-10.027 12.624-22.79 11.204-35.018a4.5 4.5 0 0 0-4.668-3.977c-12.298.543-24.25 6.605-32.79 16.632a49.557 49.557 0 0 0-5.713 8.284c-1.875-18.926-4.135-32.875-5.597-40.804A38.475 38.475 0 0 0 86.177 48.1a37.849 37.849 0 0 0 3.943-29.83 4.5 4.5 0 0 0-5.299-3.087 37.847 37.847 0 0 0-24.008 18.136 39.997 39.997 0 0 0-4.736 12.587A40.004 40.004 0 0 0 45.75 37.29a37.85 37.85 0 0 0-29.828-3.943 4.5 4.5 0 0 0-3.088 5.3A37.85 37.85 0 0 0 30.97 62.652a39.223 39.223 0 0 0 19.674 5.423 35.508 35.508 0 0 0 7.235-.751c1.402 7.734 3.5 20.844 5.252 38.194a49.568 49.568 0 0 0-6.267-6.413c-10.027-8.54-22.787-12.623-35.018-11.204a4.5 4.5 0 0 0-3.977 4.668c.544 12.299 6.606 24.25 16.633 32.79a46.938 46.938 0 0 0 30.205 11.481c.26 0 .518-.017.777-.022.532 10.458.873 22.036.879 34.549a49.531 49.531 0 0 0-6.302-7.718c-9.313-9.313-21.705-14.393-34.013-13.963a4.5 4.5 0 0 0-4.336 4.337c-.44 12.301 4.65 24.699 13.963 34.013a46.81 46.81 0 0 0 30.034 13.906 716.2 716.2 0 0 1-1.706 27.093H38.515a4.5 4.5 0 0 0-4.486 4.143l-2.205 27.733a127.918 127.918 0 0 0 27.892 90.585l12.652 15.75a4.51 4.51 0 0 0 3.508 1.681h108.248a4.5 4.5 0 0 0 3.508-1.681l12.652-15.75a127.923 127.923 0 0 0 27.892-90.585l-2.205-27.732a4.498 4.498 0 0 0-4.486-4.144h-25.489a666.969 666.969 0 0 1-1.708-27.092 46.822 46.822 0 0 0 30.037-13.907c9.314-9.314 14.403-21.711 13.963-34.013a4.5 4.5 0 0 0-4.336-4.336c-12.301-.432-24.7 4.65-34.013 13.962a49.614 49.614 0 0 0-6.3 7.714c.012-12.333.354-23.888.904-34.544.25.005.499.022.749.022a46.946 46.946 0 0 0 30.206-11.481c10.026-8.541 16.088-20.492 16.632-32.79a4.5 4.5 0 0 0-3.976-4.668c-12.228-1.421-24.992 2.663-35.019 11.204a49.683 49.683 0 0 0-6.215 6.35c1.752-17.358 3.824-30.422 5.21-38.13a35.5 35.5 0 0 0 7.225.749ZM87.534 170.014a38.03 38.03 0 0 1 22.843-11.184 39.236 39.236 0 0 1-34.028 34.027 38.038 38.038 0 0 1 11.185-22.843Zm-2.777-66.757a38.04 38.04 0 0 1 21.878-12.972 39.238 39.238 0 0 1-31.204 36.635 38.036 38.036 0 0 1 9.326-23.663ZM68.59 37.85a29.671 29.671 0 0 1 13.84-12.474 30.57 30.57 0 0 1-17.87 30.665 29.671 29.671 0 0 1 4.03-18.191ZM35.502 54.877a29.673 29.673 0 0 1-12.474-13.84 30.57 30.57 0 0 1 30.665 17.87 29.655 29.655 0 0 1-18.191-4.03Zm4.836 63.632a38.038 38.038 0 0 1-12.972-21.878A39.238 39.238 0 0 1 64 127.835a38.033 38.033 0 0 1-23.663-9.326Zm1.701 63.164a38.04 38.04 0 0 1-11.185-22.843 39.234 39.234 0 0 1 34.028 34.027 38.03 38.03 0 0 1-22.843-11.184Zm151.228 164.188-11.3 14.067H78.033l-11.3-14.067a118.911 118.911 0 0 1-26.187-80.092h178.908a118.912 118.912 0 0 1-26.187 80.092Zm25.551-89.092H41.182l1.49-18.733H217.328l1.489 18.733Zm-9.846-150.811a38.027 38.027 0 0 1 23.663-9.327A39.239 39.239 0 0 1 196 127.835a38.034 38.034 0 0 1 12.972-21.877Zm9.809-60.892a29.669 29.669 0 0 1 18.191-4.03 30.568 30.568 0 0 1-30.665 17.87 29.673 29.673 0 0 1 12.474-13.84Zm-37.182-1.498a29.675 29.675 0 0 1-4.029-18.192 30.569 30.569 0 0 1 17.87 30.665 29.673 29.673 0 0 1-13.841-12.473Zm-18.907 70.38a38.042 38.042 0 0 1-9.327-23.663 39.235 39.235 0 0 1 31.204 36.635 38.04 38.04 0 0 1-21.877-12.972Zm-1.883 67.724a38.036 38.036 0 0 1-11.185-22.842 39.234 39.234 0 0 1 34.027 34.027 38.03 38.03 0 0 1-22.842-11.185Zm45.494-11.658a38.032 38.032 0 0 1 22.843-11.184 39.238 39.238 0 0 1-34.028 34.027 38.039 38.039 0 0 1 11.185-22.843Z"/></mask><path fill="#121212" stroke="#F8F8F8" stroke-width="4" d="M209.355 68.076a39.23 39.23 0 0 0 19.675-5.423 37.864 37.864 0 0 0 18.136-24.008 4.502 4.502 0 0 0-3.088-5.298 37.847 37.847 0 0 0-29.828 3.942 39.999 39.999 0 0 0-10.327 8.617 40.018 40.018 0 0 0-4.736-12.588 37.852 37.852 0 0 0-24.008-18.136 4.502 4.502 0 0 0-5.299 3.088 37.851 37.851 0 0 0 3.943 29.828 38.476 38.476 0 0 0 19.582 16.803c-1.462 7.928-3.722 21.878-5.598 40.804a49.564 49.564 0 0 0-5.712-8.284c-8.541-10.027-20.492-16.089-32.79-16.632a4.502 4.502 0 0 0-4.669 3.976c-1.42 12.229 2.664 24.992 11.204 35.018a46.69 46.69 0 0 0 29.698 16.366 697.923 697.923 0 0 0-.9 34.495 49.71 49.71 0 0 0-5.807-6.994c-9.313-9.313-21.704-14.393-34.013-13.963a4.503 4.503 0 0 0-4.336 4.337c-.44 12.301 4.649 24.699 13.962 34.012a46.698 46.698 0 0 0 30.84 13.944c.374 8.726.934 17.744 1.68 27.055H73.036c.76-9.3 1.32-18.318 1.68-27.055a46.699 46.699 0 0 0 30.84-13.944c9.313-9.313 14.403-21.711 13.963-34.012a4.505 4.505 0 0 0-1.315-3.022 4.507 4.507 0 0 0-3.022-1.315c-12.301-.431-24.699 4.65-34.013 13.963a49.647 49.647 0 0 0-5.806 6.994 697.498 697.498 0 0 0-.901-34.495 46.692 46.692 0 0 0 29.698-16.365c8.541-10.027 12.624-22.79 11.204-35.018a4.5 4.5 0 0 0-4.668-3.977c-12.298.543-24.25 6.605-32.79 16.632a49.557 49.557 0 0 0-5.713 8.284c-1.875-18.926-4.135-32.875-5.597-40.804A38.475 38.475 0 0 0 86.177 48.1a37.849 37.849 0 0 0 3.943-29.83 4.5 4.5 0 0 0-5.299-3.087 37.847 37.847 0 0 0-24.008 18.136 39.997 39.997 0 0 0-4.736 12.587A40.004 40.004 0 0 0 45.75 37.29a37.85 37.85 0 0 0-29.828-3.943 4.5 4.5 0 0 0-3.088 5.3A37.85 37.85 0 0 0 30.97 62.652a39.223 39.223 0 0 0 19.674 5.423 35.508 35.508 0 0 0 7.235-.751c1.402 7.734 3.5 20.844 5.252 38.194a49.568 49.568 0 0 0-6.267-6.413c-10.027-8.54-22.787-12.623-35.018-11.204a4.5 4.5 0 0 0-3.977 4.668c.544 12.299 6.606 24.25 16.633 32.79a46.938 46.938 0 0 0 30.205 11.481c.26 0 .518-.017.777-.022.532 10.458.873 22.036.879 34.549a49.531 49.531 0 0 0-6.302-7.718c-9.313-9.313-21.705-14.393-34.013-13.963a4.5 4.5 0 0 0-4.336 4.337c-.44 12.301 4.65 24.699 13.963 34.013a46.81 46.81 0 0 0 30.034 13.906 716.2 716.2 0 0 1-1.706 27.093H38.515a4.5 4.5 0 0 0-4.486 4.143l-2.205 27.733a127.918 127.918 0 0 0 27.892 90.585l12.652 15.75a4.51 4.51 0 0 0 3.508 1.681h108.248a4.5 4.5 0 0 0 3.508-1.681l12.652-15.75a127.923 127.923 0 0 0 27.892-90.585l-2.205-27.732a4.498 4.498 0 0 0-4.486-4.144h-25.489a666.969 666.969 0 0 1-1.708-27.092 46.822 46.822 0 0 0 30.037-13.907c9.314-9.314 14.403-21.711 13.963-34.013a4.5 4.5 0 0 0-4.336-4.336c-12.301-.432-24.7 4.65-34.013 13.962a49.614 49.614 0 0 0-6.3 7.714c.012-12.333.354-23.888.904-34.544.25.005.499.022.749.022a46.946 46.946 0 0 0 30.206-11.481c10.026-8.541 16.088-20.492 16.632-32.79a4.5 4.5 0 0 0-3.976-4.668c-12.228-1.421-24.992 2.663-35.019 11.204a49.683 49.683 0 0 0-6.215 6.35c1.752-17.358 3.824-30.422 5.21-38.13a35.5 35.5 0 0 0 7.225.749ZM87.534 170.014a38.03 38.03 0 0 1 22.843-11.184 39.236 39.236 0 0 1-34.028 34.027 38.038 38.038 0 0 1 11.185-22.843Zm-2.777-66.757a38.04 38.04 0 0 1 21.878-12.972 39.238 39.238 0 0 1-31.204 36.635 38.036 38.036 0 0 1 9.326-23.663ZM68.59 37.85a29.671 29.671 0 0 1 13.84-12.474 30.57 30.57 0 0 1-17.87 30.665 29.671 29.671 0 0 1 4.03-18.191ZM35.502 54.877a29.673 29.673 0 0 1-12.474-13.84 30.57 30.57 0 0 1 30.665 17.87 29.655 29.655 0 0 1-18.191-4.03Zm4.836 63.632a38.038 38.038 0 0 1-12.972-21.878A39.238 39.238 0 0 1 64 127.835a38.033 38.033 0 0 1-23.663-9.326Zm1.701 63.164a38.04 38.04 0 0 1-11.185-22.843 39.234 39.234 0 0 1 34.028 34.027 38.03 38.03 0 0 1-22.843-11.184Zm151.228 164.188-11.3 14.067H78.033l-11.3-14.067a118.911 118.911 0 0 1-26.187-80.092h178.908a118.912 118.912 0 0 1-26.187 80.092Zm25.551-89.092H41.182l1.49-18.733H217.328l1.489 18.733Zm-9.846-150.811a38.027 38.027 0 0 1 23.663-9.327A39.239 39.239 0 0 1 196 127.835a38.034 38.034 0 0 1 12.972-21.877Zm9.809-60.892a29.669 29.669 0 0 1 18.191-4.03 30.568 30.568 0 0 1-30.665 17.87 29.673 29.673 0 0 1 12.474-13.84Zm-37.182-1.498a29.675 29.675 0 0 1-4.029-18.192 30.569 30.569 0 0 1 17.87 30.665 29.673 29.673 0 0 1-13.841-12.473Zm-18.907 70.38a38.042 38.042 0 0 1-9.327-23.663 39.235 39.235 0 0 1 31.204 36.635 38.04 38.04 0 0 1-21.877-12.972Zm-1.883 67.724a38.036 38.036 0 0 1-11.185-22.842 39.234 39.234 0 0 1 34.027 34.027 38.03 38.03 0 0 1-22.842-11.185Zm45.494-11.658a38.032 38.032 0 0 1 22.843-11.184 39.238 39.238 0 0 1-34.028 34.027 38.039 38.039 0 0 1 11.185-22.843Z" mask="url(#a)"/></g></svg>