<svg xmlns="http://www.w3.org/2000/svg" width="32" height="32" fill="none"><path stroke="currentColor" stroke-linecap="round" stroke-linejoin="round" stroke-width="2" d="M29.333 5.347c-1.333.653-2.64.918-4 1.32-1.494-1.687-3.71-1.78-5.84-.983-2.129.797-3.524 2.747-3.493 4.983V12c-4.327.11-8.18-1.86-10.667-5.333 0 0-5.576 9.91 5.334 14.666-2.496 1.663-4.986 2.784-8 2.667 4.41 2.404 9.217 3.23 13.378 2.023 4.774-1.387 8.696-4.964 10.202-10.323.449-1.63.672-3.313.662-5.004-.002-.332 2.014-3.696 2.424-5.35v0Z"/></svg>